PathFileType	4	(X/Y/Z)	./resultDataOpenSim/trcMotMarkerGrf/sub09/qtm-05-02.trc
DataRate	CameraRate	NumFrames	NumMarkers	Units	OrigDataRate	OrigDataStartFrame	OrigNumFrames
250.000000	250.000000	13	24	m	250.000000	65	514
Frame#	Time	L.Toe.Tip			R.Toe.Tip			L.Ankle.Lat			R.Ankle.Lat			L.Ankle.Med			R.Ankle.Med			L.Heel			R.Heel			L.Knee.Lat			R.Knee.Lat			L.Knee.Med			R.Knee.Med			L.Thigh.Upper			R.Thigh.Upper			L.ASIS			R.ASIS			V.Sacral			L.Acromium			R.Acromium			C7			L.Elbow			R.Elbow			L.Wrist.Lat			R.Wrist.Lat
		X1	Y1	Z1	X2	Y2	Z2	X3	Y3	Z3	X4	Y4	Z4	X5	Y5	Z5	X6	Y6	Z6	X7	Y7	Z7	X8	Y8	Z8	X9	Y9	Z9	X10	Y10	Z10	X11	Y11	Z11	X12	Y12	Z12	X13	Y13	Z13	X14	Y14	Z14	X15	Y15	Z15	X16	Y16	Z16	X17	Y17	Z17	X18	Y18	Z18	X19	Y19	Z19	X20	Y20	Z20	X21	Y21	Z21	X22	Y22	Z22	X23	Y23	Z23	X24	Y24	Z24

65	0.256	-1.3277175	0.081719388	-0.014253688	-0.57750938	0.039075418	0.10746406	-1.3432829	0.23782504	-0.069626076	-0.72499712	0.052651474	0.13248091	-1.3194055	0.22437649	0.024358689	-0.71302355	0.092201647	0.043261697	-1.404152	0.28524766	-0.024684456	-0.79172567	0.033077042	0.080869178	-0.97202633	0.42105114	-0.093086737	-0.69156738	0.5049726	0.20200668	-0.96007322	0.40689371	0.031277866	-0.70311068	0.49450226	0.074537625	-0.92681175	0.82687106	-0.11046045	-0.90028788	0.85277596	0.26202217	-0.83468394	0.91271346	-0.055236946	-0.82830084	0.93851671	0.18382487	-0.99988273	0.98045774	0.067439514	-0.83026716	1.3805653	-0.088642448	-0.87586371	1.3809713	0.23895934	-0.92348477	1.4327701	0.068940858	-0.93272633	1.0173925	-0.16155092	-1.0250261	1.0491644	0.29100441	-0.69269706	0.88877749	-0.13552181	-0.92907213	0.79583649	0.3278598
66	0.26	-1.3153921	0.084285696	-0.016354052	-0.57743633	0.039011641	0.10732487	-1.3314227	0.24063712	-0.069656658	-0.72533461	0.052506874	0.13298508	-1.3080214	0.22646541	0.024317437	-0.71291046	0.092147254	0.043107562	-1.3924548	0.28774559	-0.024043853	-0.791666	0.033248784	0.080843284	-0.95933986	0.42101156	-0.092564353	-0.68785847	0.50465174	0.20202045	-0.94824198	0.40705907	0.032058271	-0.69990461	0.4942844	0.074546882	-0.92009204	0.82719943	-0.10986828	-0.89345041	0.85393335	0.26259677	-0.82893513	0.91342903	-0.054894056	-0.82244707	0.93936122	0.18414711	-0.9943728	0.98128528	0.067693781	-0.82455275	1.3812127	-0.088606171	-0.86936727	1.3817661	0.23911415	-0.91748379	1.4337049	0.069200614	-0.92792811	1.0181679	-0.16113893	-1.0172151	1.0493068	0.29292093	-0.68918672	0.8868997	-0.13565982	-0.91909691	0.79649666	0.32765273
67	0.264	-1.302634	0.086662053	-0.01840087	-0.57739499	0.038957938	0.1072222	-1.3192933	0.24319717	-0.069669515	-0.72540896	0.052510472	0.13308187	-1.2968031	0.22827011	0.024447832	-0.71277976	0.092092134	0.042995366	-1.3805606	0.28993403	-0.023398078	-0.79163484	0.033399333	0.08081729	-0.94656108	0.42113898	-0.091921355	-0.68435069	0.50427757	0.20204729	-0.93595743	0.40728862	0.032913032	-0.69682612	0.49401837	0.074562078	-0.91347249	0.82764866	-0.10931107	-0.88669606	0.85522153	0.26316984	-0.82320936	0.91424591	-0.054544798	-0.81661051	0.94030727	0.18440248	-0.98903752	0.98216356	0.067772996	-0.81889609	1.38194	-0.088570686	-0.86291055	1.3826345	0.23926934	-0.91152997	1.4347162	0.069381107	-0.9231898	1.0189806	-0.16070327	-1.0095867	1.0494692	0.29445587	-0.68582352	0.88506138	-0.13583883	-0.90904831	0.79731344	0.32746091
68	0.268	-1.2895524	0.088812798	-0.020360739	-0.57738779	0.038913602	0.10715567	-1.3068952	0.24548813	-0.069662197	-0.72526217	0.052602653	0.13288572	-1.2849254	0.22991329	0.024512173	-0.71264643	0.092042354	0.042919729	-1.3684567	0.29181952	-0.022894268	-0.79163102	0.033511048	0.080771719	-0.93365191	0.42143798	-0.091152018	-0.68102722	0.50385092	0.20207894	-0.92339938	0.40757712	0.033825591	-0.69384173	0.49371506	0.074577949	-0.90710166	0.82818433	-0.10886622	-0.88031347	0.85659096	0.26367053	-0.81753303	0.91515533	-0.054196617	-0.81081066	0.94134823	0.18460863	-0.98389377	0.98315736	0.067535758	-0.81330028	1.382747	-0.088538444	-0.85649308	1.3835773	0.2394297	-0.90564029	1.435826	0.069508683	-0.91842794	1.0198414	-0.16017616	-1.0021674	1.0496694	0.29558307	-0.68258274	0.88326239	-0.13604795	-0.89896716	0.79827324	0.3272699
69	0.272	-1.2761557	0.090713208	-0.022242169	-0.57741472	0.038881543	0.10711298	-1.2942384	0.2474929	-0.069638513	-0.7249629	0.052736591	0.1325278	-1.2717145	0.23146477	0.024275909	-0.71252843	0.092001164	0.042867742	-1.3561721	0.29338682	-0.022574679	-0.79164863	0.033564507	0.080677328	-0.92069382	0.42192822	-0.090303476	-0.67784382	0.50341195	0.20212494	-0.91075364	0.40793687	0.03475429	-0.69092863	0.49338699	0.074615137	-0.90094076	0.82881432	-0.10853107	-0.87438158	0.85800136	0.26407797	-0.81196336	0.91614769	-0.053871115	-0.80506357	0.94247665	0.18478913	-0.97887112	0.98430986	0.066998365	-0.80776737	1.3836316	-0.088518549	-0.85011328	1.3845936	0.23959103	-0.89982831	1.4370444	0.069677264	-0.91348737	1.0207702	-0.15946751	-0.99490415	1.0499435	0.29647484	-0.67939578	0.88151151	-0.1362666	-0.88888217	0.79936684	0.32706996
70	0.276	-1.2623973	0.09237326	-0.024057724	-0.57747583	0.038865654	0.10708004	-1.281357	0.24919895	-0.06960262	-0.72471561	0.052886065	0.13222314	-1.2577583	0.23280011	0.023901855	-0.71243048	0.091972627	0.042830011	-1.3437557	0.29461934	-0.022392041	-0.7916841	0.033557941	0.080524779	-0.90780306	0.42261852	-0.089507603	-0.67476105	0.50301902	0.2022024	-0.89819862	0.40839604	0.035671785	-0.68808724	0.4930559	0.074718874	-0.89484457	0.82957348	-0.10824142	-0.8688255	0.85942255	0.26441278	-0.80654115	0.9172174	-0.053582707	-0.79936836	0.94368177	0.18496771	-0.97376165	0.98559806	0.06642008	-0.80229992	1.3845914	-0.088514286	-0.84377317	1.3856822	0.2397478	-0.89408029	1.4383576	0.069964667	-0.90826779	1.0218052	-0.1585171	-0.98774355	1.0503113	0.29728406	-0.6762103	0.87982325	-0.13647583	-0.87883583	0.80059065	0.32684914
71	0.28	-1.248241	0.093824682	-0.025814222	-0.57756904	0.038868678	0.10704926	-1.2683183	0.25060671	-0.069551198	-0.72482086	0.053018454	0.13224424	-1.2443972	0.23373831	0.023805292	-0.7123633	0.091956948	0.042801913	-1.3312447	0.29551275	-0.022269463	-0.79174126	0.033521292	0.080351152	-0.89489087	0.42350462	-0.088966459	-0.67178694	0.50270008	0.20231268	-0.88590353	0.4089925	0.036581805	-0.68534216	0.49274465	0.074939439	-0.88871957	0.8304814	-0.10793459	-0.86362921	0.86082954	0.26467927	-0.80125059	0.91836384	-0.053320176	-0.79368201	0.94494937	0.18516097	-0.96837655	0.98694273	0.066092257	-0.79690342	1.3856254	-0.088520968	-0.83748091	1.3868439	0.23990055	-0.88832867	1.4397212	0.070335625	-0.90286913	1.022978	-0.15741853	-0.98063443	1.0507602	0.29809734	-0.67305412	0.87820978	-0.13667467	-0.86886413	0.80194299	0.32659591
72	0.284	-1.2336781	0.095099736	-0.027511131	-0.57768767	0.038891646	0.10702203	-1.2552017	0.25173534	-0.069478658	-0.72528753	0.053103663	0.13260202	-1.2322276	0.23427895	0.024162768	-0.71234942	0.091945987	0.042781785	-1.3186545	0.29607321	-0.022141514	-0.79182015	0.033495156	0.080209701	-0.8817579	0.42457894	-0.088766043	-0.66895821	0.5024364	0.20244364	-0.87391074	0.40976593	0.037508685	-0.68270234	0.49246819	0.075270904	-0.88256997	0.83152834	-0.10758695	-0.85883623	0.86220336	0.26486484	-0.79602331	0.91959414	-0.053054746	-0.78790613	0.94626232	0.18537961	-0.96274538	0.98828312	0.066076315	-0.79157793	1.3867313	-0.088529925	-0.8312442	1.3880806	0.2400538	-0.88248644	1.4410571	0.070670611	-0.89756321	1.0242736	-0.15641214	-0.97351462	1.0512614	0.29897699	-0.6700153	0.87667345	-0.1368802	-0.85896286	0.80342275	0.32631404
73	0.288	-1.2187309	0.09622255	-0.029128726	-0.57782078	0.038932804	0.10700946	-1.2420416	0.25261046	-0.069382143	-0.72575445	0.053140876	0.13299739	-1.220687	0.23459746	0.024771163	-0.71238703	0.091932063	0.042770011	-1.3059842	0.29630357	-0.021975462	-0.79190671	0.033498379	0.080117067	-0.86848073	0.42582284	-0.088691277	-0.66628359	0.50219198	0.2025904	-0.86204136	0.41075171	0.038477754	-0.68014287	0.49223649	0.075617597	-0.87643164	0.83269724	-0.10720672	-0.85430428	0.86354717	0.26500428	-0.79078025	0.92091874	-0.052764025	-0.78194019	0.94760461	0.18563743	-0.95706811	0.98963253	0.066243299	-0.78630678	1.3879073	-0.088532718	-0.82506058	1.3893934	0.24020998	-0.87653756	1.4423051	0.070892866	-0.89255482	1.0256494	-0.15563535	-0.96636207	1.0518055	0.29993472	-0.66715596	0.875208	-0.13710696	-0.84909514	0.80503202	0.32602575
74	0.292	-1.2034643	0.097201693	-0.030617572	-0.57795632	0.03898582	0.10702882	-1.2287388	0.25324702	-0.069282644	-0.72594157	0.053152013	0.13320729	-1.2085783	0.23487581	0.025221482	-0.71243847	0.091919218	0.042768474	-1.2932256	0.29619423	-0.021789763	-0.79198323	0.03352564	0.080053761	-0.8553651	0.42721268	-0.088399482	-0.66374784	0.50194245	0.20275939	-0.85003794	0.41196424	0.039499599	-0.67765879	0.4920517	0.075887179	-0.87032389	0.83397831	-0.10681054	-0.84955672	0.86490455	0.26521384	-0.78546975	0.92234375	-0.05244301	-0.77581317	0.94895688	0.18594057	-0.95150108	0.99102989	0.066488575	-0.78106924	1.3891523	-0.088526652	-0.81892522	1.3907804	0.24036923	-0.87057654	1.4434979	0.071041527	-0.88778977	1.0270882	-0.1549411	-0.95922061	1.0524084	0.30090981	-0.66447103	0.87380955	-0.13735421	-0.8392281	0.80677606	0.32575292
75	0.296	-1.1879823	0.098017305	-0.031905955	-0.57808748	0.039042487	0.10709203	-1.2151133	0.2536452	-0.069221541	-0.72585717	0.053160419	0.13323693	-1.1949027	0.2351789	0.025176989	-0.71247481	0.091918427	0.042779629	-1.2803791	0.29573431	-0.021642924	-0.79204173	0.033562671	0.079997266	-0.84255903	0.42874402	-0.087755496	-0.66135512	0.50168373	0.20295721	-0.83781233	0.4133896	0.040570528	-0.6752882	0.49189799	0.076088213	-0.86426533	0.83536097	-0.10641862	-0.84420944	0.86631624	0.26558586	-0.7800859	0.92387161	-0.052096477	-0.76979829	0.95028512	0.18625921	-0.94602657	0.99246947	0.066857838	-0.77586278	1.3904595	-0.088514206	-0.81283976	1.3922333	0.24053141	-0.86471938	1.4447345	0.071209451	-0.88307041	1.0286088	-0.15406392	-0.95213572	1.0530861	0.30184296	-0.66192404	0.87248304	-0.13761362	-0.8293576	0.8086583	0.32549981
76	0.3	-1.1723504	0.098636518	-0.032955972	-0.57821626	0.03909511	0.10719586	-1.2011847	0.25379948	-0.069197367	-0.72562904	0.053184119	0.1331647	-1.179873	0.23540509	0.024725288	-0.71250055	0.091936719	0.042805865	-1.267469	0.29492479	-0.021575393	-0.79208291	0.033596899	0.079936823	-0.82999849	0.43042705	-0.086843754	-0.65910824	0.50143125	0.20318622	-0.82546428	0.41500814	0.041682827	-0.67304787	0.49175357	0.076277823	-0.85829324	0.83682732	-0.10606264	-0.83867336	0.86772906	0.2660184	-0.77468202	0.9254974	-0.051730002	-0.76433403	0.95154737	0.18653041	-0.94050082	0.99390286	0.067552145	-0.77069328	1.3918209	-0.088494395	-0.80679816	1.3937406	0.24069514	-0.85898616	1.4460716	0.071436271	-0.87827431	1.0302418	-0.15285264	-0.9451117	1.0538435	0.30273287	-0.65948722	0.8712385	-0.13788191	-0.81950174	0.81068251	0.32525684
77	0.304	-1.1564841	0.099066949	-0.033836609	-0.57834966	0.039131881	0.10732356	-1.1871931	0.25370537	-0.069154231	-0.72541752	0.053233087	0.13307639	-1.1646903	0.23537745	0.024302888	-0.71253434	0.091974155	0.042849628	-1.2545317	0.29377525	-0.021572727	-0.79211021	0.033623021	0.079871409	-0.81759752	0.43226808	-0.085779638	-0.65697478	0.50120584	0.20344121	-0.81312294	0.41680705	0.042820715	-0.67089061	0.49161507	0.076473085	-0.85243847	0.83835634	-0.1057707	-0.83398198	0.86900457	0.26625584	-0.76933614	0.92720454	-0.051348098	-0.75964654	0.95272467	0.18671078	-0.93481189	0.99530264	0.068737245	-0.76555475	1.3932327	-0.088466247	-0.80078313	1.3952979	0.24085768	-0.85331477	1.4474858	0.071693579	-0.8734072	1.0319932	-0.15134868	-0.93813614	1.0546763	0.30360373	-0.65714124	0.870083	-0.13816164	-0.80966942	0.8128593	0.32500986
